# xmcd
#
# Track frame offsets:
#	150
#	15478
#	32342
#	48894
#	65158
#	83515
#	99187
#	113004
#	129340
#	146883
#	164395
#	177770
#	192642
#	208293
#	227521
#	242273
#	257512
#	274530
#	289780
#	303983
#
# Disc length: 4264 seconds
#
# Revision: 0
# Processed by: cddbd v1.5.2PL0 Copyright (c) Steve Scherf et al.
# Submitted via: audiograbber 1.83.01
#
DISCID=0610a614
DTITLE=Blackhawk - Blackhawk and Stong Enough
DYEAR=1995
DGENRE=Country
TTITLE0=Goodbye Says It All
TTITLE1=Down In The Flammes
TTITLE2=Every Once In A While
TTITLE3=I Sure Can Smell The Rain
TTITLE4=Just About Right
TTITLE5=One More Heartache
TTITLE6=Love Like This
TTITLE7=Between Raged And Wrong
TTITLE8=Stone By Stone
TTITLE9=Let 'em Whril
TTITLE10=Big Guitar
TTITLE11=Like There Ain't No Yesterday
TTITLE12=Cast Iron Heart
TTITLE13=I'm Not Strong Enough To Say No
TTITLE14=Almost A Memory Now
TTITLE15=King Of The World
TTITLE16=Bad Love Gone Good
TTITLE17=Any Man With A Heartbeat
TTITLE18=A Kiss Is Worth A Thousand Words
TTITLE19=Hook, Line And Sinker
EXTD=
EXTT0=
EXTT1=
EXTT2=
EXTT3=
EXTT4=
EXTT5=
EXTT6=
EXTT7=
EXTT8=
EXTT9=
EXTT10=
EXTT11=
EXTT12=
EXTT13=
EXTT14=
EXTT15=
EXTT16=
EXTT17=
EXTT18=
EXTT19=
PLAYORDER=
